<svg width="33" height="31" viewBox="0 0 33 31" fill="none" xmlns="http://www.w3.org/2000/svg">
<path d="M10.1354 10.2355H31.8135C32.2301 10.2355 32.5246 10.64 32.4025 11.0373L29.673 21.2733C29.594 21.5333 29.3569 21.7139 29.084 21.7139H12.2113C11.924 21.7139 11.6726 21.5117 11.6079 21.2299L9.53204 10.994C9.44584 10.6039 9.74034 10.2355 10.1354 10.2355Z" fill="#2B2E43"/>
<path d="M26.807 1.94994L13.6048 0.00676828C13.2672 -0.0437976 12.9511 0.194584 12.9008 0.534098L10.8681 14.4614C10.8178 14.8009 11.0548 15.1187 11.3924 15.1693L24.5947 17.1125C24.9323 17.163 25.2483 16.9247 25.2986 16.5851L27.3314 2.65786C27.3816 2.31835 27.1446 2.00051 26.807 1.94994Z" fill="#24619F" fill-opacity="0.6"/>
<path d="M22.6409 27.334C22.6409 26.5972 22.9426 25.9254 23.4167 25.4414L23.4598 25.4053C23.941 24.943 24.5875 24.6613 25.2986 24.6613C26.0313 24.6613 26.6993 24.9647 27.1805 25.4414L27.2164 25.4848C27.6761 25.9687 27.9563 26.6189 27.9563 27.334C27.9563 28.0708 27.6546 28.7354 27.1733 29.2266C26.6849 29.7178 26.0241 30.014 25.2914 30.014C24.5588 30.014 23.8907 29.7106 23.4095 29.2339C22.9282 28.7499 22.6337 28.0781 22.6337 27.3412L22.6409 27.334ZM5.84719 8.35738L4.75539 4.26154L0.2876 1.42263C0.000282185 1.24204 -0.0859131 0.859185 0.0936604 0.570237C0.273234 0.28129 0.65393 0.194605 0.941247 0.375198L5.59579 3.32969C5.73227 3.40915 5.84001 3.53918 5.88311 3.70532L6.91027 7.57H30.4775C30.8151 7.57 31.0952 7.85172 31.0952 8.19123C31.0952 8.25625 31.0809 8.32848 31.0665 8.38627L28.064 19.6841C27.9922 19.9586 27.7408 20.1464 27.4678 20.1464H9.57514L8.19602 21.1289V22.8626H29.6155C29.9531 22.8626 30.2333 23.1443 30.2333 23.4838C30.2333 23.8233 29.9531 24.105 29.6155 24.105H7.57828C7.24068 24.105 6.96055 23.8233 6.96055 23.4838V20.811C6.96773 20.616 7.05393 20.4282 7.22632 20.3054L8.74192 19.2218L5.84719 8.35015V8.35738ZM26.9938 18.904L29.673 8.81969H7.24068L9.9271 18.904H26.9938ZM8.89994 27.334C8.89994 26.5972 9.20163 25.9254 9.6757 25.4414C10.157 24.9574 10.825 24.6613 11.5576 24.6613C12.2903 24.6613 12.9511 24.9647 13.4396 25.4414C13.9208 25.9254 14.2225 26.5972 14.2225 27.334C14.2225 28.0708 13.9208 28.7426 13.4467 29.2266L13.4036 29.2627C12.9224 29.7251 12.2759 30.0068 11.5648 30.0068C10.8322 30.0068 10.1641 29.7034 9.68288 29.2266L9.64697 29.1833C9.18726 28.6993 8.90713 28.0492 8.90713 27.334H8.89994ZM10.552 26.3227C10.2934 26.5828 10.1354 26.9367 10.1354 27.334C10.1354 27.7169 10.2791 28.0636 10.5233 28.3237L10.552 28.3526C10.8106 28.6126 11.1626 28.7715 11.5576 28.7715C11.9383 28.7715 12.2831 28.6198 12.5417 28.3815L12.5704 28.3526C12.829 28.0925 12.987 27.7385 12.987 27.3412C12.987 26.9439 12.829 26.59 12.5704 26.3299C12.3118 26.0699 11.9599 25.911 11.5648 25.911C11.1698 25.911 10.8178 26.0699 10.5592 26.3299L10.552 26.3227ZM24.293 26.3227C24.0344 26.5828 23.8764 26.9367 23.8764 27.334C23.8764 27.7313 24.0344 28.0925 24.293 28.3453C24.5516 28.6054 24.9035 28.7643 25.2986 28.7643C25.6937 28.7643 26.0528 28.6054 26.3042 28.3453C26.5628 28.0853 26.7208 27.7241 26.7208 27.3268C26.7208 26.9439 26.5772 26.5972 26.3329 26.3444L26.3042 26.3155C26.0456 26.0554 25.6937 25.8965 25.2986 25.8965C24.9179 25.8965 24.5731 26.041 24.3145 26.2866L24.2858 26.3155L24.293 26.3227Z" fill="white"/>
</svg>
