<svg width="68" height="63" viewBox="0 0 68 63" fill="none" xmlns="http://www.w3.org/2000/svg">
<path d="M20.9414 21.1483H65.7321C66.5929 21.1483 67.2014 21.9841 66.9491 22.805L61.3094 43.9543C61.1462 44.4916 60.6564 44.8647 60.0924 44.8647H25.2305C24.6369 44.8647 24.1174 44.4468 23.9839 43.8647L19.6948 22.7154C19.5167 21.9095 20.1252 21.1483 20.9414 21.1483Z" fill="#2B2E43"/>
<path d="M55.3878 4.02891L28.1097 0.0139844C27.4122 -0.0904932 26.7592 0.402044 26.6553 1.10354L22.4552 29.8797C22.3513 30.5811 22.8411 31.2379 23.5386 31.3423L50.8167 35.3573C51.5142 35.4617 52.1672 34.9692 52.2711 34.2677L56.4712 5.4916C56.5751 4.7901 56.0853 4.13339 55.3878 4.02891Z" fill="#24619F" fill-opacity="0.6"/>
<path d="M46.7799 56.4766C46.7799 54.9543 47.4032 53.5662 48.3828 52.5662L48.4718 52.4916C49.4662 51.5363 50.8019 50.9543 52.2711 50.9543C53.7849 50.9543 55.1652 51.5811 56.1595 52.5662L56.2337 52.6558C57.1836 53.6558 57.7624 54.999 57.7624 56.4766C57.7624 57.999 57.139 59.3722 56.1447 60.3871C55.1355 61.402 53.7701 62.014 52.2563 62.014C50.7425 62.014 49.3623 61.3871 48.3679 60.402C47.3736 59.402 46.7651 58.014 46.7651 56.4916L46.7799 56.4766ZM12.0813 17.2677L9.82539 8.805L0.594184 2.93933C0.000537265 2.5662 -0.177557 1.77515 0.193472 1.17814C0.564502 0.581122 1.35108 0.402018 1.94473 0.775152L11.5618 6.87963C11.8438 7.04381 12.0664 7.31247 12.1555 7.65575L14.2777 15.6408H62.9716C63.6692 15.6408 64.248 16.2229 64.248 16.9244C64.248 17.0587 64.2183 17.208 64.1886 17.3274L57.985 40.6707C57.8366 41.2378 57.3171 41.6259 56.7532 41.6259H19.7838L16.9343 43.6558V47.2378H61.1907C61.8882 47.2378 62.467 47.8199 62.467 48.5214C62.467 49.2229 61.8882 49.805 61.1907 49.805H15.658C14.9604 49.805 14.3816 49.2229 14.3816 48.5214V42.999C14.3965 42.596 14.5746 42.208 14.9308 41.9543L18.0622 39.7155L12.0813 17.2528V17.2677ZM55.7737 39.0587L61.3094 18.2229H14.9604L20.511 39.0587H55.7737ZM18.3887 56.4766C18.3887 54.9543 19.0121 53.5662 19.9916 52.5662C20.986 51.5662 22.3662 50.9543 23.88 50.9543C25.3938 50.9543 26.7592 51.5811 27.7684 52.5662C28.7627 53.5662 29.3861 54.9543 29.3861 56.4766C29.3861 57.999 28.7627 59.3871 27.7832 60.3871L27.6942 60.4617C26.6998 61.4169 25.3641 61.999 23.8948 61.999C22.381 61.999 21.0008 61.3722 20.0064 60.3871L19.9322 60.2975C18.9824 59.2975 18.4036 57.9543 18.4036 56.4766H18.3887ZM21.8022 54.3871C21.2679 54.9244 20.9414 55.6558 20.9414 56.4766C20.9414 57.2677 21.2383 57.9841 21.7429 58.5214L21.8022 58.5811C22.3365 59.1184 23.0637 59.4468 23.88 59.4468C24.6666 59.4468 25.3789 59.1334 25.9132 58.6408L25.9726 58.5811C26.5069 58.0438 26.8334 57.3125 26.8334 56.4916C26.8334 55.6707 26.5069 54.9393 25.9726 54.402C25.4383 53.8647 24.7111 53.5363 23.8948 53.5363C23.0786 53.5363 22.3513 53.8647 21.8171 54.402L21.8022 54.3871ZM50.1934 54.3871C49.6591 54.9244 49.3326 55.6558 49.3326 56.4766C49.3326 57.2975 49.6591 58.0438 50.1934 58.5662C50.7277 59.1035 51.4549 59.4319 52.2711 59.4319C53.0874 59.4319 53.8295 59.1035 54.3489 58.5662C54.8832 58.0289 55.2097 57.2826 55.2097 56.4617C55.2097 55.6707 54.9129 54.9543 54.4083 54.4319L54.3489 54.3722C53.8146 53.8349 53.0874 53.5065 52.2711 53.5065C51.4846 53.5065 50.7722 53.805 50.2379 54.3125L50.1785 54.3722L50.1934 54.3871Z" fill="#282828"/>
</svg>
