<svg width="105" height="85" viewBox="0 0 105 85" fill="none" xmlns="http://www.w3.org/2000/svg">
<path fill-rule="evenodd" clip-rule="evenodd" d="M49.7332 4.28088C51.6831 5.02111 57.5098 9.74656 59.5995 11.294L78.5823 25.4599C79.7803 26.3491 87.5071 31.3506 87.5071 32.9061L87.506 80.112H16.1722C16.1687 66.1332 15.7482 44.7174 16.2311 31.6196L49.7332 4.28088ZM22.5579 10.0214L29.6899 10.0895C29.6957 11.3633 29.8389 13.7548 29.7026 14.8992C29.4508 17.0114 24.2329 20.4169 22.5729 21.6202L22.5579 10.0214ZM18.8106 24.3132C17.9892 26.2579 4.80418 36.337 2.86582 37.9087C1.70603 38.8498 -0.681723 40.2564 0.185807 42.0336C2.05487 45.8641 8.317 36.9722 12.3763 35.1764C12.6708 41.1329 11.9142 81.8928 12.7875 83.0626C15.1637 84.692 27.8035 83.8559 31.8374 83.8559C41.6736 83.8559 87.7151 84.4149 90.8884 83.3871C92.2087 78.4607 90.4979 44.6643 91.3388 35.1002L100.839 42.0983C103.795 44.3086 106.649 41.663 102.596 38.6893C96.8189 34.4512 51.4278 0.110861 50.2553 0C47.8641 0.43536 36.3899 10.7304 33.5644 12.7363C33.0988 8.93701 34.8419 6.25329 30.4038 6.25329C16.7532 6.25329 18.8082 5.44952 18.8106 13.674C18.8117 17.2204 18.8106 20.7668 18.8106 24.3132Z" fill="#005A9C" fill-opacity="0.678431"/>
<path fill-rule="evenodd" clip-rule="evenodd" d="M39.086 29.5155C38.483 31.2212 33.428 36.2734 31.8362 36.7619L27.8428 33.1543C28.0126 36.3577 29.3329 38.1477 31.5185 39.3625C35.386 41.5139 35.1134 38.456 38.8354 42.2772L59.0889 62.5394C63.0396 66.4183 59.894 65.498 62.0518 69.8054C63.1042 71.9048 65.1292 73.5065 68.2158 73.7202C67.0953 71.9222 64.9572 70.8955 64.2525 68.915C64.77 67.2879 69.4993 62.5521 71.1315 62.0416C73.1392 62.7588 74.1141 64.8859 75.9404 66.0061C75.721 63.0821 74.2897 61.1375 72.3155 59.9619C68.589 57.7412 68.5381 60.7702 64.949 57.0922L44.6909 36.8335C40.5773 32.794 43.7806 33.7294 41.714 29.5767C40.5796 27.2971 38.6644 25.8363 35.4599 25.5476L39.086 29.5167V29.5155Z" fill="#FEFEFE" fill-opacity="0.678431"/>
<path fill-rule="evenodd" clip-rule="evenodd" d="M35.4589 25.5475C38.6645 25.8362 40.5785 27.2971 41.7129 29.5767C43.7795 33.7293 40.5774 32.794 44.6898 36.8335L64.9479 57.0921C68.5359 60.7701 68.5879 57.74 72.3145 59.9618C74.2898 61.1385 75.7199 63.082 75.9394 66.006C74.1131 64.887 73.1381 62.7587 71.1304 62.0416C69.4982 62.552 64.77 67.289 64.2513 68.9149C64.956 70.8954 67.0931 71.9221 68.2148 73.7201C65.1282 73.5065 63.1031 71.9036 62.0508 69.8053C59.8929 65.4979 63.0373 66.4183 59.0878 62.5393L38.8342 42.2772C35.1123 38.4559 35.3849 41.5139 31.5174 39.3625C29.3318 38.1476 28.0115 36.3576 27.8417 33.1542L31.8351 36.7618C33.4269 36.2734 38.4819 31.2211 39.0849 29.5155L35.4589 25.5464V25.5475ZM50.2681 39.031C47.6944 36.4581 45.2674 34.8275 44.9439 32.5018C44.431 28.8006 43.2735 26.4853 40.805 24.7658C38.3456 23.0544 34.3129 22.3384 31.4354 23.8108C31.3592 25.8906 34.7404 28.5489 35.9013 29.5686C35.2602 30.9128 33.115 33.0688 31.7635 33.7016C30.6545 32.429 28.2321 29.2845 26.0131 29.236C24.5599 32.4406 25.1548 36.3519 27.1613 38.8104C29.3284 41.4665 30.9236 42.0242 35.0776 42.7829C36.8612 43.1074 37.4492 44.2784 38.572 45.4044L53.7116 60.5496C56.9784 63.8153 58.4374 64.3547 58.7759 67.2752C59.8179 76.2537 69.5455 77.7931 72.2555 75.0539C71.9886 72.7304 68.4446 71.138 67.398 68.8792L71.1316 65.2254C73.3264 66.2659 74.9493 69.7937 77.2712 70.0432C79.7929 67.513 79.0156 57.8058 69.0996 56.5389C66.8297 56.2491 66.8019 55.5747 65.4157 54.1705L50.2681 39.0322V39.031Z" fill="#005A9C" fill-opacity="0.678431"/>
</svg>
