<svg width="995" height="127" viewBox="0 0 995 127" fill="none" xmlns="http://www.w3.org/2000/svg">
<path fill-rule="evenodd" clip-rule="evenodd" d="M0 0.629883H72.1986L113.055 36.4995L151.205 0.629883H219.92L142.666 63.4539L219.92 126.275H150.82L109.96 90.399L71.8074 126.275H0L77.2533 63.4539L0 0.629883Z" fill="white" fill-opacity="0.05"/>
<path fill-rule="evenodd" clip-rule="evenodd" d="M0 0.629883H72.1986L113.055 36.4995L151.205 0.629883H219.92L142.666 63.4539L219.92 126.275H150.82L109.96 90.399L71.8074 126.275H0L77.2533 63.4539L0 0.629883Z" fill="white" fill-opacity="0.05"/>
<path fill-rule="evenodd" clip-rule="evenodd" d="M263.894 3.82324H421.295C430.031 3.82324 437.176 10.9454 437.176 19.6485V108.99C437.176 117.694 430.031 124.813 421.295 124.813H263.894C255.158 124.813 248.013 117.694 248.013 108.99V19.6485C248.013 10.9454 255.158 3.82324 263.894 3.82324ZM293.473 32.8046H391.712C395.268 32.8046 398.175 35.7015 398.175 39.2438V89.3921C398.175 92.9344 395.268 95.8313 391.712 95.8313H293.473C289.918 95.8313 287.01 92.9344 287.01 89.3921V39.2438C287.01 35.7015 289.918 32.8046 293.473 32.8046Z" fill="white" fill-opacity="0.05"/>
<path fill-rule="evenodd" clip-rule="evenodd" d="M263.894 3.82324H421.295C430.031 3.82324 437.176 10.9454 437.176 19.6485V108.99C437.176 117.694 430.031 124.813 421.295 124.813H263.894C255.158 124.813 248.013 117.694 248.013 108.99V19.6485C248.013 10.9454 255.158 3.82324 263.894 3.82324ZM293.473 32.8046H391.712C395.268 32.8046 398.175 35.7015 398.175 39.2438V89.3921C398.175 92.9344 395.268 95.8313 391.712 95.8313H293.473C289.918 95.8313 287.01 92.9344 287.01 89.3921V39.2438C287.01 35.7015 289.918 32.8046 293.473 32.8046Z" fill="white" fill-opacity="0.05"/>
<path fill-rule="evenodd" clip-rule="evenodd" d="M472.133 0.230957H536.71L629.303 83.5733C629.303 76.4481 629.024 0.230957 629.29 0.230957H672.973V125.876H603.688L511.831 42.8891V125.876H472.133V0.230957Z" fill="white" fill-opacity="0.05"/>
<path fill-rule="evenodd" clip-rule="evenodd" d="M472.133 0.230957H536.71L629.303 83.5733C629.303 76.4481 629.024 0.230957 629.29 0.230957H672.973V125.876H603.688L511.831 42.8891V125.876H472.133V0.230957Z" fill="white" fill-opacity="0.05"/>
<path fill-rule="evenodd" clip-rule="evenodd" d="M700.547 126.421H744.139V0H700.547V126.421Z" fill="white" fill-opacity="0.05"/>
<path fill-rule="evenodd" clip-rule="evenodd" d="M700.547 126.421H744.139V0H700.547V126.421Z" fill="white" fill-opacity="0.05"/>
<path fill-rule="evenodd" clip-rule="evenodd" d="M775.08 0.629883H847.282L888.135 36.4995L926.282 0.629883H995L917.747 63.4539L995 126.275H925.9L885.04 90.399L846.888 126.275H775.08L852.337 63.4539L775.08 0.629883Z" fill="white" fill-opacity="0.05"/>
<path fill-rule="evenodd" clip-rule="evenodd" d="M775.08 0.629883H847.282L888.135 36.4995L926.282 0.629883H995L917.747 63.4539L995 126.275H925.9L885.04 90.399L846.888 126.275H775.08L852.337 63.4539L775.08 0.629883Z" fill="white" fill-opacity="0.05"/>
</svg>
