<svg width="366" height="51" viewBox="0 0 366 51" fill="none" xmlns="http://www.w3.org/2000/svg">
<path fill-rule="evenodd" clip-rule="evenodd" d="M0 0.358032H26.4992L41.501 14.6844L55.5002 0.358032H80.7209L52.3637 25.4522L80.7209 50.5371H55.3622L40.3604 36.2108L26.3612 50.5371H0L28.3572 25.4522L0 0.358032Z" fill="#23629F"/>
<path fill-rule="evenodd" clip-rule="evenodd" d="M96.8632 1.63611H154.635C157.845 1.63611 160.467 4.47747 160.467 7.95332V43.6314C160.467 47.1073 157.845 49.9486 154.635 49.9486H96.8632C93.6531 49.9486 91.0317 47.1073 91.0317 43.6314V7.95332C91.0317 4.47747 93.6531 1.63611 96.8632 1.63611ZM107.717 13.2131H143.773C145.079 13.2131 146.146 14.3717 146.146 15.7878V35.8153C146.146 37.2314 145.079 38.39 143.773 38.39H107.717C106.411 38.39 105.344 37.2314 105.344 35.8153V15.7878C105.344 14.3717 106.411 13.2131 107.717 13.2131Z" fill="#23629F"/>
<path fill-rule="evenodd" clip-rule="evenodd" d="M173.289 0.20166H196.992L230.978 33.4889C230.978 30.6384 230.877 0.20166 230.969 0.20166H247.001V50.3808H221.569L187.849 17.2407V50.3808H173.28V0.20166H173.289Z" fill="#23629F"/>
<path fill-rule="evenodd" clip-rule="evenodd" d="M257.128 50.6014H273.123V0.109619H257.128V50.6014Z" fill="#23629F"/>
<path fill-rule="evenodd" clip-rule="evenodd" d="M284.482 0.358032H310.981L325.974 14.6844L339.982 0.358032H365.203L336.846 25.4522L365.203 50.5371H339.844L324.843 36.2108L310.843 50.5371H284.482L312.839 25.4522L284.482 0.358032Z" fill="#23629F"/>
</svg>
