<svg width="197" height="120" viewBox="0 0 197 120" fill="none" xmlns="http://www.w3.org/2000/svg">
<path fill-rule="evenodd" clip-rule="evenodd" d="M94.4632 85.0436H115.587L125.677 74.3306L125.938 74.0877L136.462 84.8978H150.646L125.597 58.8802L118.447 66.3927L111.275 74.3306H96.5794L118.422 52.5005L94.4644 28.5554L70.508 52.5005L92.3493 74.3306H77.6533L70.4831 66.3927L63.3319 58.8802L38.2826 84.8978H52.4676L62.9905 74.0877L63.2513 74.3306L73.3415 85.0436H94.4655H94.4632ZM94.4632 43.0969L103.869 52.4993L94.4632 61.9006L85.057 52.4993L94.4632 43.0969ZM94.4632 15.9868L70.9182 39.4615L63.4529 46.9041L55.9507 39.3584L55.9768 39.3323L41.7206 24.8975H56.783L63.4979 31.8151L94.4644 0.864624L125.432 31.8151L132.146 24.8975H147.208L132.953 39.3323L132.979 39.3584L125.476 46.9041L118.012 39.4615L94.4655 15.9868H94.4632ZM176.795 84.4381H163.487L131.653 52.7114L131.68 52.6866L131.669 52.6759L160.148 25.8466H173.455L145.277 52.6972L176.795 84.4381ZM12.133 84.4381H25.4395L57.275 52.7114L57.2477 52.6866L57.2584 52.6759L28.7792 25.8466H15.4715L43.6495 52.6972L12.133 84.4381Z" fill="#FEFEFE"/>
<path d="M180.252 22.5205V11.4864H185.146C186.13 11.4864 186.878 11.5859 187.389 11.7838C187.9 11.9817 188.309 12.3313 188.614 12.8313C188.92 13.3325 189.072 13.8871 189.072 14.4938C189.072 15.2782 188.816 15.9382 188.31 16.4738C187.803 17.0117 187.022 17.3506 185.964 17.4964C186.352 17.6812 186.645 17.8661 186.846 18.0462C187.272 18.4372 187.674 18.9278 188.052 19.5155L189.962 22.5205H188.137L186.677 20.2253C186.253 19.5594 185.901 19.0534 185.626 18.7015C185.349 18.3495 185.102 18.1054 184.884 17.9644C184.667 17.827 184.444 17.7286 184.218 17.6718C184.054 17.6386 183.783 17.6208 183.406 17.6208H181.715V22.5217H180.249L180.252 22.5205ZM181.717 16.3553H184.853C185.52 16.3553 186.038 16.2866 186.414 16.1467C186.789 16.0117 187.074 15.7901 187.268 15.4844C187.462 15.1822 187.56 14.854 187.56 14.4961C187.56 13.9748 187.372 13.5434 186.994 13.2069C186.616 12.8704 186.019 12.7033 185.205 12.7033H181.715V16.3565L181.717 16.3553Z" fill="#FEFEFE"/>
<path d="M180.252 22.5205V11.4864H185.146C186.13 11.4864 186.878 11.5859 187.389 11.7838C187.9 11.9817 188.309 12.3313 188.614 12.8313C188.92 13.3325 189.072 13.8871 189.072 14.4938C189.072 15.2782 188.816 15.9382 188.31 16.4738C187.803 17.0117 187.022 17.3506 185.964 17.4964C186.352 17.6812 186.645 17.8661 186.846 18.0462C187.272 18.4372 187.674 18.9278 188.052 19.5155L189.962 22.5205H188.137L186.677 20.2253C186.253 19.5594 185.901 19.0534 185.626 18.7015C185.349 18.3495 185.102 18.1054 184.884 17.9644C184.667 17.827 184.444 17.7286 184.218 17.6718C184.054 17.6386 183.783 17.6208 183.406 17.6208H181.715V22.5217H180.249L180.252 22.5205ZM181.717 16.3553H184.853C185.52 16.3553 186.038 16.2866 186.414 16.1467C186.789 16.0117 187.074 15.7901 187.268 15.4844C187.462 15.1822 187.56 14.854 187.56 14.4961C187.56 13.9748 187.372 13.5434 186.994 13.2069C186.616 12.8704 186.019 12.7033 185.205 12.7033H181.715V16.3565L181.717 16.3553Z" fill="#FEFEFE"/>
<path fill-rule="evenodd" clip-rule="evenodd" d="M0.531235 95.4082H14.0927L21.7679 102.168L28.9333 95.4082H41.8416L27.3293 107.247L41.8416 119.086H28.8622L21.187 112.326L14.0204 119.086H0.531235L15.0423 107.247L0.531235 95.4082Z" fill="#FEFEFE"/>
<path fill-rule="evenodd" clip-rule="evenodd" d="M0.531235 95.4082H14.0927L21.7679 102.168L28.9333 95.4082H41.8416L27.3293 107.247L41.8416 119.086H28.8622L21.187 112.326L14.0204 119.086H0.531235L15.0423 107.247L0.531235 95.4082Z" fill="#FEFEFE"/>
<path fill-rule="evenodd" clip-rule="evenodd" d="M50.1024 96.0114H79.6699C81.3107 96.0114 82.6528 97.3527 82.6528 98.9927V115.829C82.6528 117.469 81.3107 118.811 79.6699 118.811H50.1024C48.4616 118.811 47.1196 117.469 47.1196 115.829V98.9927C47.1196 97.3527 48.4616 96.0114 50.1024 96.0114ZM55.6591 101.472H74.1133C74.7807 101.472 75.3273 102.018 75.3273 102.685V112.135C75.3273 112.802 74.7807 113.348 74.1133 113.348H55.6591C54.9916 113.348 54.4451 112.802 54.4451 112.135V102.685C54.4451 102.018 54.9916 101.472 55.6591 101.472Z" fill="#FEFEFE"/>
<path fill-rule="evenodd" clip-rule="evenodd" d="M50.1024 96.0114H79.6699C81.3107 96.0114 82.6528 97.3527 82.6528 98.9927V115.829C82.6528 117.469 81.3107 118.811 79.6699 118.811H50.1024C48.4616 118.811 47.1196 117.469 47.1196 115.829V98.9927C47.1196 97.3527 48.4616 96.0114 50.1024 96.0114ZM55.6591 101.472H74.1133C74.7807 101.472 75.3273 102.018 75.3273 102.685V112.135C75.3273 112.802 74.7807 113.348 74.1133 113.348H55.6591C54.9916 113.348 54.4451 112.802 54.4451 112.135V102.685C54.4451 102.018 54.9916 101.472 55.6591 101.472Z" fill="#FEFEFE"/>
<path fill-rule="evenodd" clip-rule="evenodd" d="M89.2195 95.3347H101.35L118.744 111.039C118.744 109.697 118.691 95.3347 118.741 95.3347H126.947V119.012H113.932L96.6766 103.372V119.012H89.2195V95.3347Z" fill="#FEFEFE"/>
<path fill-rule="evenodd" clip-rule="evenodd" d="M89.2195 95.3347H101.35L118.744 111.039C118.744 109.697 118.691 95.3347 118.741 95.3347H126.947V119.012H113.932L96.6766 103.372V119.012H89.2195V95.3347Z" fill="#FEFEFE"/>
<path fill-rule="evenodd" clip-rule="evenodd" d="M132.127 119.114H140.315V95.2909H132.127V119.114Z" fill="#FEFEFE"/>
<path fill-rule="evenodd" clip-rule="evenodd" d="M132.127 119.114H140.315V95.2909H132.127V119.114Z" fill="#FEFEFE"/>
<path fill-rule="evenodd" clip-rule="evenodd" d="M146.128 95.4082H159.691L167.365 102.168L174.53 95.4082H187.44L172.927 107.247L187.44 119.086H174.458L166.783 112.326L159.616 119.086H146.128L160.64 107.247L146.128 95.4082Z" fill="#FEFEFE"/>
<path fill-rule="evenodd" clip-rule="evenodd" d="M146.128 95.4082H159.691L167.365 102.168L174.53 95.4082H187.44L172.927 107.247L187.44 119.086H174.458L166.783 112.326L159.616 119.086H146.128L160.64 107.247L146.128 95.4082Z" fill="#FEFEFE"/>
<path d="M183.782 29.1668C190.399 29.1668 195.763 23.8055 195.763 17.1919C195.763 10.5783 190.399 5.21692 183.782 5.21692C177.165 5.21692 171.801 10.5783 171.801 17.1919C171.801 23.8055 177.165 29.1668 183.782 29.1668Z" stroke="#FEFEFE" stroke-width="0.755967" stroke-miterlimit="22.9256"/>
</svg>
