<svg width="381" height="251" viewBox="0 0 381 251" fill="none" xmlns="http://www.w3.org/2000/svg">
<path fill-rule="evenodd" clip-rule="evenodd" d="M183.535 178.39H224.806L244.517 155.687L245.023 155.172L265.59 178.078H293.303L244.361 122.942L230.389 138.869L216.381 155.687H187.665L230.343 109.425L183.535 58.6757L136.727 109.425L179.405 155.687H150.689L136.681 138.869L122.709 122.942L73.7673 178.078H101.481L122.047 155.172L122.553 155.687L142.264 178.39H183.535ZM183.535 89.4985L201.913 109.425L183.535 129.351L165.158 109.425L183.535 89.4985ZM183.535 32.0459L137.527 81.7928L122.939 97.5629L108.278 81.5721L108.333 81.517L80.4818 50.9239H109.915L123.041 65.5906L183.544 0L244.048 65.5906L257.165 50.9239H286.598L258.747 81.517L258.802 81.5721L244.14 97.5629L229.552 81.7928L183.544 32.0459H183.535ZM344.398 177.112H318.395L256.19 109.875L256.245 109.82L256.226 109.802L311.874 52.9469H337.876L282.817 109.848L344.398 177.112ZM22.6637 177.112H48.6662L110.872 109.875L110.817 109.82L110.835 109.802L55.1875 52.9469H29.185L84.2437 109.848L22.6637 177.112Z" fill="#FEFEFE" fill-opacity="0.058824"/>
<path fill-rule="evenodd" clip-rule="evenodd" d="M358.995 13.0574C370.915 13.0574 380.573 22.4183 380.573 33.9677C380.573 45.5171 370.915 54.878 358.995 54.878C347.074 54.878 337.416 45.5171 337.416 33.9677C337.416 22.4183 347.074 13.0574 358.995 13.0574Z" stroke="#FEFEFE" stroke-opacity="0.058824" stroke-width="0.75579" stroke-miterlimit="22.9256"/>
<path d="M351.158 45.8941V22.5103H360.724C362.646 22.5103 364.109 22.7218 365.111 23.1448C366.114 23.5678 366.905 24.3034 367.503 25.3701C368.101 26.4275 368.395 27.6045 368.395 28.8919C368.395 30.5562 367.898 31.9539 366.905 33.085C365.911 34.2252 364.385 34.9424 362.324 35.2551C363.078 35.6505 363.658 36.0367 364.044 36.4229C364.881 37.2505 365.663 38.2896 366.408 39.5401L370.142 45.9125H366.574L363.722 41.0482C362.894 39.6413 362.205 38.5654 361.671 37.8206C361.128 37.0757 360.65 36.5608 360.218 36.2574C359.795 35.9631 359.362 35.7608 358.921 35.6413C358.599 35.5677 358.075 35.5309 357.33 35.5309H354.028V45.9217H351.167L351.158 45.8941ZM354.018 32.8275H360.144C361.45 32.8275 362.462 32.6804 363.198 32.3861C363.934 32.1011 364.486 31.6321 364.863 30.9792C365.24 30.3356 365.433 29.6367 365.433 28.8827C365.433 27.7792 365.065 26.8597 364.329 26.1517C363.594 25.4344 362.425 25.085 360.834 25.085H354.018V32.8275Z" fill="#273545" fill-opacity="0.058824"/>
<path d="M351.158 45.8941V22.5103H360.724C362.646 22.5103 364.109 22.7218 365.111 23.1448C366.114 23.5678 366.905 24.3034 367.503 25.3701C368.101 26.4275 368.395 27.6045 368.395 28.8919C368.395 30.5562 367.898 31.9539 366.905 33.085C365.911 34.2252 364.385 34.9424 362.324 35.2551C363.078 35.6505 363.658 36.0367 364.044 36.4229C364.881 37.2505 365.663 38.2896 366.408 39.5401L370.142 45.9125H366.574L363.722 41.0482C362.894 39.6413 362.205 38.5654 361.671 37.8206C361.128 37.0757 360.65 36.5608 360.218 36.2574C359.795 35.9631 359.362 35.7608 358.921 35.6413C358.599 35.5677 358.075 35.5309 357.33 35.5309H354.028V45.9217H351.167L351.158 45.8941ZM354.018 32.8275H360.144C361.45 32.8275 362.462 32.6804 363.198 32.3861C363.934 32.1011 364.486 31.6321 364.863 30.9792C365.24 30.3356 365.433 29.6367 365.433 28.8827C365.433 27.7792 365.065 26.8597 364.329 26.1517C363.594 25.4344 362.425 25.085 360.834 25.085H354.018V32.8275Z" fill="#FEFEFE" fill-opacity="0.058824"/>
<path fill-rule="evenodd" clip-rule="evenodd" d="M0 200.358H26.4992L41.501 214.684L55.5002 200.358H80.7209L52.3637 225.452L80.7209 250.537H55.3622L40.3604 236.211L26.3612 250.537H0L28.3572 225.452L0 200.358Z" fill="#FEFEFE" fill-opacity="0.058824"/>
<path fill-rule="evenodd" clip-rule="evenodd" d="M0 200.358H26.4992L41.501 214.684L55.5002 200.358H80.7209L52.3637 225.452L80.7209 250.537H55.3622L40.3604 236.211L26.3612 250.537H0L28.3572 225.452L0 200.358Z" fill="#FEFEFE" fill-opacity="0.058824"/>
<path fill-rule="evenodd" clip-rule="evenodd" d="M96.8632 201.636H154.635C157.845 201.636 160.467 204.477 160.467 207.953V243.631C160.467 247.107 157.845 249.949 154.635 249.949H96.8632C93.6531 249.949 91.0317 247.107 91.0317 243.631V207.953C91.0317 204.477 93.6531 201.636 96.8632 201.636ZM107.717 213.213H143.773C145.079 213.213 146.146 214.372 146.146 215.788V235.815C146.146 237.231 145.079 238.39 143.773 238.39H107.717C106.411 238.39 105.344 237.231 105.344 235.815V215.788C105.344 214.372 106.411 213.213 107.717 213.213Z" fill="#FEFEFE" fill-opacity="0.058824"/>
<path fill-rule="evenodd" clip-rule="evenodd" d="M96.8632 201.636H154.635C157.845 201.636 160.467 204.477 160.467 207.953V243.631C160.467 247.107 157.845 249.949 154.635 249.949H96.8632C93.6531 249.949 91.0317 247.107 91.0317 243.631V207.953C91.0317 204.477 93.6531 201.636 96.8632 201.636ZM107.717 213.213H143.773C145.079 213.213 146.146 214.372 146.146 215.788V235.815C146.146 237.231 145.079 238.39 143.773 238.39H107.717C106.411 238.39 105.344 237.231 105.344 235.815V215.788C105.344 214.372 106.411 213.213 107.717 213.213Z" fill="#FEFEFE" fill-opacity="0.058824"/>
<path fill-rule="evenodd" clip-rule="evenodd" d="M173.289 200.202H196.992L230.978 233.489C230.978 230.638 230.877 200.202 230.969 200.202H247.001V250.381H221.569L187.849 217.241V250.381H173.28V200.202H173.289Z" fill="#FEFEFE" fill-opacity="0.058824"/>
<path fill-rule="evenodd" clip-rule="evenodd" d="M173.289 200.202H196.992L230.978 233.489C230.978 230.638 230.877 200.202 230.969 200.202H247.001V250.381H221.569L187.849 217.241V250.381H173.28V200.202H173.289Z" fill="#FEFEFE" fill-opacity="0.058824"/>
<path fill-rule="evenodd" clip-rule="evenodd" d="M257.128 250.601H273.123V200.11H257.128V250.601Z" fill="#FEFEFE" fill-opacity="0.058824"/>
<path fill-rule="evenodd" clip-rule="evenodd" d="M257.128 250.601H273.123V200.11H257.128V250.601Z" fill="#FEFEFE" fill-opacity="0.058824"/>
<path fill-rule="evenodd" clip-rule="evenodd" d="M284.482 200.358H310.981L325.974 214.684L339.982 200.358H365.203L336.846 225.452L365.203 250.537H339.844L324.843 236.211L310.843 250.537H284.482L312.839 225.452L284.482 200.358Z" fill="#FEFEFE" fill-opacity="0.058824"/>
<path fill-rule="evenodd" clip-rule="evenodd" d="M284.482 200.358H310.981L325.974 214.684L339.982 200.358H365.203L336.846 225.452L365.203 250.537H339.844L324.843 236.211L310.843 250.537H284.482L312.839 225.452L284.482 200.358Z" fill="#FEFEFE" fill-opacity="0.058824"/>
</svg>
