<svg width="88" height="58" viewBox="0 0 88 58" fill="none" xmlns="http://www.w3.org/2000/svg">
<path fill-rule="evenodd" clip-rule="evenodd" d="M41.9566 40.7805H51.3913L55.8973 35.5904L56.013 35.4727L60.7145 40.709H67.0499L55.8616 28.1049L52.6676 31.7457L49.4653 35.5904H42.9007L52.6571 25.0148L41.9566 13.4134L31.2562 25.0148L41.0125 35.5904H34.448L31.2456 31.7457L28.0517 28.1049L16.8634 40.709H23.1987L27.9003 35.4727L28.0159 35.5904L32.522 40.7805H41.9566ZM41.9566 20.4596L46.1578 25.0148L41.9566 29.5701L37.7555 25.0148L41.9566 20.4596ZM41.9566 7.32577L31.4391 18.6981L28.1043 22.3031L24.7526 18.6476L24.7652 18.635L18.3983 11.6414H25.1269L28.1274 14.9942L41.9587 0L55.7901 14.9942L58.7885 11.6414H65.517L59.1502 18.635L59.1628 18.6476L55.8111 22.3031L52.4763 18.6981L41.9587 7.32577H41.9566ZM78.7302 40.4883H72.786L58.5656 25.1178L58.5782 25.1052L58.574 25.101L71.2952 12.1038H77.2394L64.6528 25.1115L78.7302 40.4883ZM5.18097 40.4883H11.1252L25.3456 25.1178L25.3329 25.1052L25.3371 25.101L12.616 12.1038H6.67176L19.2583 25.1115L5.18097 40.4883Z" fill="#245C97"/>
<path fill-rule="evenodd" clip-rule="evenodd" d="M82.0671 2.98486C84.7922 2.98486 87 5.12479 87 7.76501C87 10.4052 84.7922 12.5452 82.0671 12.5452C79.3421 12.5452 77.1343 10.4052 77.1343 7.76501C77.1343 5.12479 79.3421 2.98486 82.0671 2.98486Z" stroke="#FEFEFE" stroke-opacity="0.058824" stroke-width="0.75579" stroke-miterlimit="22.9256"/>
<path d="M80.2757 10.4916V5.146H82.4624C82.9019 5.146 83.2362 5.19434 83.4654 5.29104C83.6946 5.38774 83.8754 5.55591 84.0121 5.79975C84.1488 6.04149 84.2161 6.31055 84.2161 6.60485C84.2161 6.98532 84.1025 7.30484 83.8754 7.5634C83.6483 7.82406 83.2993 7.98802 82.8283 8.05949C83.0007 8.14988 83.1332 8.23817 83.2215 8.32646C83.4128 8.51564 83.5916 8.75318 83.7619 9.03907L84.6156 10.4958H83.7997L83.1479 9.38381C82.9587 9.06219 82.801 8.81624 82.679 8.64597C82.555 8.4757 82.4456 8.35799 82.3468 8.28862C82.2501 8.22135 82.1512 8.1751 82.0503 8.14778C81.9767 8.13096 81.8569 8.12255 81.6866 8.12255H80.9317V10.4979H80.2778L80.2757 10.4916ZM80.9296 7.50454H82.33C82.6285 7.50454 82.8598 7.47091 83.0281 7.40364C83.1963 7.33848 83.3224 7.23127 83.4086 7.08202C83.4948 6.93488 83.539 6.77511 83.539 6.60274C83.539 6.35049 83.4549 6.14029 83.2867 5.97843C83.1185 5.81446 82.8514 5.73458 82.4877 5.73458H80.9296V7.50454Z" fill="#273545" fill-opacity="0.058824"/>
<path d="M80.2757 10.4916V5.146H82.4624C82.9019 5.146 83.2362 5.19434 83.4654 5.29104C83.6946 5.38774 83.8754 5.55591 84.0121 5.79975C84.1488 6.04149 84.2161 6.31055 84.2161 6.60485C84.2161 6.98532 84.1025 7.30484 83.8754 7.5634C83.6483 7.82406 83.2993 7.98802 82.8283 8.05949C83.0007 8.14988 83.1332 8.23817 83.2215 8.32646C83.4128 8.51564 83.5916 8.75318 83.7619 9.03907L84.6156 10.4958H83.7997L83.1479 9.38381C82.9587 9.06219 82.801 8.81624 82.679 8.64597C82.555 8.4757 82.4456 8.35799 82.3468 8.28862C82.2501 8.22135 82.1512 8.1751 82.0503 8.14778C81.9767 8.13096 81.8569 8.12255 81.6866 8.12255H80.9317V10.4979H80.2778L80.2757 10.4916ZM80.9296 7.50454H82.33C82.6285 7.50454 82.8598 7.47091 83.0281 7.40364C83.1963 7.33848 83.3224 7.23127 83.4086 7.08202C83.4948 6.93488 83.539 6.77511 83.539 6.60274C83.539 6.35049 83.4549 6.14029 83.2867 5.97843C83.1185 5.81446 82.8514 5.73458 82.4877 5.73458H80.9296V7.50454Z" fill="#FEFEFE" fill-opacity="0.058824"/>
<path fill-rule="evenodd" clip-rule="evenodd" d="M0 45.8022H6.05779L9.48724 49.0773L12.6875 45.8022H18.453L11.9705 51.5388L18.453 57.2733H12.656L9.22651 53.9983L6.02625 57.2733H0L6.48253 51.5388L0 45.8022Z" fill="#FEFEFE" fill-opacity="0.058824"/>
<path fill-rule="evenodd" clip-rule="evenodd" d="M0 45.8022H6.05779L9.48724 49.0773L12.6875 45.8022H18.453L11.9705 51.5388L18.453 57.2733H12.656L9.22651 53.9983L6.02625 57.2733H0L6.48253 51.5388L0 45.8022Z" fill="#245C97"/>
<path fill-rule="evenodd" clip-rule="evenodd" d="M22.1432 46.0945H35.3501C36.0839 46.0945 36.6832 46.744 36.6832 47.5386V55.6947C36.6832 56.4893 36.0839 57.1389 35.3501 57.1389H22.1432C21.4094 57.1389 20.8101 56.4893 20.8101 55.6947V47.5386C20.8101 46.744 21.4094 46.0945 22.1432 46.0945ZM24.6244 48.741H32.8668C33.1654 48.741 33.4093 49.0059 33.4093 49.3296V53.908C33.4093 54.2317 33.1654 54.4965 32.8668 54.4965H24.6244C24.3258 54.4965 24.0819 54.2317 24.0819 53.908V49.3296C24.0819 49.0059 24.3258 48.741 24.6244 48.741Z" fill="#FEFEFE" fill-opacity="0.058824"/>
<path fill-rule="evenodd" clip-rule="evenodd" d="M22.1432 46.0945H35.3501C36.0839 46.0945 36.6832 46.744 36.6832 47.5386V55.6947C36.6832 56.4893 36.0839 57.1389 35.3501 57.1389H22.1432C21.4094 57.1389 20.8101 56.4893 20.8101 55.6947V47.5386C20.8101 46.744 21.4094 46.0945 22.1432 46.0945ZM24.6244 48.741H32.8668C33.1654 48.741 33.4093 49.0059 33.4093 49.3296V53.908C33.4093 54.2317 33.1654 54.4965 32.8668 54.4965H24.6244C24.3258 54.4965 24.0819 54.2317 24.0819 53.908V49.3296C24.0819 49.0059 24.3258 48.741 24.6244 48.741Z" fill="#245C97"/>
<path fill-rule="evenodd" clip-rule="evenodd" d="M39.6143 45.7666H45.0329L52.8022 53.3762C52.8022 52.7245 52.7791 45.7666 52.8001 45.7666H56.4651V57.2377H50.6512L42.9428 49.6618V57.2377H39.6122V45.7666H39.6143Z" fill="#FEFEFE" fill-opacity="0.058824"/>
<path fill-rule="evenodd" clip-rule="evenodd" d="M39.6143 45.7666H45.0329L52.8022 53.3762C52.8022 52.7245 52.7791 45.7666 52.8001 45.7666H56.4651V57.2377H50.6512L42.9428 49.6618V57.2377H39.6122V45.7666H39.6143Z" fill="#245C97"/>
<path fill-rule="evenodd" clip-rule="evenodd" d="M58.7801 57.2882H62.4366V45.7456H58.7801V57.2882Z" fill="#FEFEFE" fill-opacity="0.058824"/>
<path fill-rule="evenodd" clip-rule="evenodd" d="M58.7801 57.2882H62.4366V45.7456H58.7801V57.2882Z" fill="#245C97"/>
<path fill-rule="evenodd" clip-rule="evenodd" d="M65.0334 45.8022H71.0912L74.5186 49.0773L77.7209 45.8022H83.4864L77.0039 51.5388L83.4864 57.2733H77.6894L74.2599 53.9983L71.0597 57.2733H65.0334L71.5159 51.5388L65.0334 45.8022Z" fill="#FEFEFE" fill-opacity="0.058824"/>
<path fill-rule="evenodd" clip-rule="evenodd" d="M65.0334 45.8022H71.0912L74.5186 49.0773L77.7209 45.8022H83.4864L77.0039 51.5388L83.4864 57.2733H77.6894L74.2599 53.9983L71.0597 57.2733H65.0334L71.5159 51.5388L65.0334 45.8022Z" fill="#245C97"/>
</svg>
