<svg width="60" height="27" viewBox="0 0 60 27" fill="none" xmlns="http://www.w3.org/2000/svg">
<path fill-rule="evenodd" clip-rule="evenodd" d="M13.3233 0H45.7875C53.1194 0 59.1108 6.00019 59.1108 13.3362C59.1108 20.6721 53.1139 26.6723 45.7875 26.6723H13.3233C5.99682 26.6723 0 20.6721 0 13.3362C0 6.00019 5.99682 0 13.3233 0Z" fill="#FEFEFE"/>
<path d="M27.1838 22.7463H30.9718V13.2546H33.6148L33.897 10.078H30.9718C30.9718 10.078 30.9718 8.88883 30.9718 8.26981C30.9718 7.52046 31.1238 7.22182 31.8456 7.22182C32.4263 7.22182 33.897 7.22182 33.897 7.22182V3.92578C33.897 3.92578 31.737 3.92578 31.2758 3.92578C28.4537 3.92578 27.1838 5.16925 27.1838 7.54761C27.1838 9.61645 27.1838 10.0835 27.1838 10.0835H25.2138V13.3035H27.1838V22.7571V22.7463Z" fill="#005A9C"/>
</svg>
