<svg width="25" height="25" viewBox="0 0 25 25" fill="none" xmlns="http://www.w3.org/2000/svg">
<path d="M19.8413 24.1502H4.30896C1.92622 24.1502 0 22.224 0 19.8413V4.30896C0 1.92623 1.92622 0 4.30896 0H19.8413C22.224 0 24.1502 1.92623 24.1502 4.30896V19.8413C24.1502 22.224 22.224 24.1502 19.8413 24.1502Z" fill="#FEFEFE"/>
<path d="M10.2324 19.3734H13.1718V12.0136H15.2205L15.4432 9.55297H13.1718C13.1718 9.55297 13.1718 8.62883 13.1718 8.15005C13.1718 7.57107 13.2832 7.33725 13.851 7.33725C14.3075 7.33725 15.4432 7.33725 15.4432 7.33725V4.77637C15.4432 4.77637 13.762 4.77637 13.4057 4.77637C11.2122 4.77637 10.2324 5.74505 10.2324 7.5822C10.2324 9.18554 10.2324 9.55297 10.2324 9.55297H8.707V12.0471H10.2324V19.3845V19.3734Z" fill="#005A9C"/>
</svg>
