<svg width="25" height="25" viewBox="0 0 25 25" fill="none" xmlns="http://www.w3.org/2000/svg">
<path d="M19.8413 24.1502H4.30896C1.92623 24.1502 0 22.224 0 19.8413V4.30896C0 1.92623 1.92623 0 4.30896 0H19.8413C22.224 0 24.1502 1.92623 24.1502 4.30896V19.8413C24.1502 22.224 22.224 24.1502 19.8413 24.1502Z" fill="#FEFEFE"/>
<path d="M12.0807 5.45532C10.277 5.45532 10.0543 5.46646 9.35281 5.49986C8.65135 5.53326 8.16144 5.64461 7.74947 5.81162C7.31523 5.97864 6.9478 6.21246 6.58037 6.57989C6.21294 6.94732 5.99026 7.31475 5.81211 7.74898C5.64509 8.17209 5.53375 8.65086 5.50035 9.35232C5.46694 10.0538 5.45581 10.2876 5.45581 12.0802C5.45581 13.884 5.46694 14.1067 5.50035 14.8081C5.53375 15.5096 5.64509 15.9995 5.81211 16.4114C5.97912 16.8457 6.21294 17.2131 6.58037 17.5805C6.9478 17.948 7.31523 18.1707 7.74947 18.3488C8.17257 18.5158 8.65135 18.6272 9.35281 18.6606C10.0543 18.694 10.2881 18.7051 12.0807 18.7051C13.8845 18.7051 14.1071 18.694 14.8086 18.6606C15.5101 18.6272 16 18.5158 16.4119 18.3488C16.8462 18.1818 17.2136 17.948 17.581 17.5805C17.9485 17.2131 18.1712 16.8457 18.3493 16.4114C18.5163 15.9883 18.6277 15.5096 18.6611 14.8081C18.6945 14.1067 18.7056 13.8728 18.7056 12.0802C18.7056 10.2765 18.6945 10.0538 18.6611 9.35232C18.6277 8.65086 18.5163 8.16095 18.3493 7.74898C18.1823 7.31475 17.9485 6.94732 17.581 6.57989C17.2136 6.21246 16.8462 5.98977 16.4119 5.81162C15.9888 5.64461 15.5101 5.53326 14.8086 5.49986C14.1071 5.46646 13.8733 5.45532 12.0807 5.45532ZM12.0807 6.64669C13.8511 6.64669 14.0626 6.65783 14.7529 6.68009C15.3987 6.7135 15.7439 6.81371 15.9777 6.91391C16.2895 7.03639 16.5121 7.18113 16.7348 7.40382C16.9686 7.63764 17.1134 7.86033 17.2247 8.16095C17.3138 8.39477 17.4252 8.73994 17.4586 9.38572C17.492 10.0872 17.492 10.2987 17.492 12.0579C17.492 13.8283 17.4808 14.0398 17.4586 14.7302C17.4252 15.376 17.3249 15.7211 17.2247 15.9549C17.1023 16.2667 16.9575 16.4894 16.7348 16.7121C16.501 16.9459 16.2783 17.0906 15.9777 17.2131C15.7439 17.3022 15.3987 17.4135 14.7529 17.4469C14.0515 17.4803 13.8399 17.4803 12.0807 17.4803C10.3104 17.4803 10.0988 17.4692 9.40848 17.4469C8.76269 17.4135 8.41753 17.3133 8.18371 17.2131C7.87195 17.0906 7.64926 16.9459 7.42658 16.7121C7.19276 16.4783 7.04801 16.2556 6.92553 15.9549C6.83646 15.7211 6.72512 15.376 6.70285 14.7302C6.66945 14.0287 6.66945 13.8172 6.66945 12.0579C6.66945 10.2876 6.68058 10.076 6.70285 9.38572C6.73625 8.73994 6.83646 8.39477 6.92553 8.16095C7.04801 7.84919 7.19276 7.62651 7.42658 7.40382C7.6604 7.17 7.88308 7.02526 8.18371 6.91391C8.41753 6.82484 8.76269 6.7135 9.40848 6.68009C10.1099 6.64669 10.3215 6.64669 12.0807 6.64669Z" fill="#005A9C"/>
<path d="M12.0807 14.2862C10.8671 14.2862 9.87612 13.2953 9.87612 12.0816C9.87612 10.8569 10.8671 9.87706 12.0807 9.87706C13.3055 9.87706 14.2853 10.868 14.2853 12.0816C14.2853 13.2953 13.2943 14.2862 12.0807 14.2862ZM12.0807 8.67456C10.199 8.67456 8.68475 10.2 8.68475 12.0816C8.68475 13.9633 10.2102 15.4776 12.0807 15.4776C13.9624 15.4776 15.4878 13.9522 15.4878 12.0816C15.4878 10.2 13.9624 8.67456 12.0807 8.67456Z" fill="#005A9C"/>
<path d="M16.4119 8.54102C16.4119 8.97526 16.0556 9.33156 15.6214 9.33156C15.1872 9.33156 14.8309 8.97526 14.8309 8.54102C14.8309 8.10678 15.1872 7.75049 15.6214 7.75049C16.0556 7.75049 16.4119 8.10678 16.4119 8.54102Z" fill="#005A9C"/>
</svg>
