<svg width="25" height="25" viewBox="0 0 25 25" fill="none" xmlns="http://www.w3.org/2000/svg">
<path d="M19.7522 24.05H4.29783C1.92623 24.05 0 22.1238 0 19.7522V4.29783C0 1.92623 1.92623 0 4.29783 0H19.7522C22.1238 0 24.05 1.92623 24.05 4.29783V19.7522C24.05 22.1238 22.1238 24.05 19.7522 24.05Z" fill="#FEFEFE"/>
<path fill-rule="evenodd" clip-rule="evenodd" d="M12.1475 17.2584C11.0452 17.2584 10.0097 16.9355 9.15236 16.3677L7.05913 17.0358L7.73832 15.0316C7.0814 14.1408 6.70283 13.0497 6.70283 11.8583C6.70283 11.6802 6.71397 11.502 6.7251 11.335C6.99232 8.59597 9.31939 6.45819 12.1364 6.45819C14.9979 6.45819 17.3472 8.65164 17.5587 11.4352C17.5699 11.58 17.581 11.7136 17.581 11.8583C17.581 14.8423 15.1426 17.2584 12.1364 17.2584H12.1475ZM18.6165 11.6913C18.5274 8.21741 15.6659 5.43384 12.1475 5.43384C8.67359 5.43384 5.83436 8.16174 5.67848 11.58C5.67848 11.669 5.66735 11.7692 5.66735 11.8583C5.66735 13.072 6.0125 14.2076 6.59148 15.1763L5.42239 18.628L9.00763 17.4923C9.93178 18.0044 11.0007 18.2939 12.1364 18.2939C15.7105 18.2939 18.6165 15.4213 18.6165 11.8694C18.6165 11.8138 18.6165 11.7581 18.6165 11.7024V11.6913Z" fill="#005A9C"/>
<path fill-rule="evenodd" clip-rule="evenodd" d="M15.1092 13.1505C14.9533 13.0725 14.1739 12.694 14.0292 12.6383C13.8844 12.5826 13.7731 12.5603 13.6729 12.7162C13.5615 12.8721 13.2609 13.2284 13.1718 13.3286C13.0828 13.4399 12.9826 13.4511 12.8267 13.3731C12.6708 13.2952 12.1586 13.1282 11.5462 12.5937C11.0786 12.1818 10.7557 11.6585 10.6666 11.5026C10.5776 11.3467 10.6555 11.2576 10.7334 11.1797C10.8114 11.1017 10.8893 10.9904 10.9784 10.9013C11.0007 10.8791 11.0229 10.8457 11.0341 10.8234C11.0675 10.7677 11.1009 10.7121 11.1343 10.6341C11.1899 10.5228 11.1565 10.4337 11.1231 10.3558C11.0897 10.2778 10.7668 9.49841 10.6332 9.18665C10.4996 8.87489 10.366 8.93057 10.2769 8.93057C10.1879 8.93057 10.0765 8.91943 9.97631 8.91943C9.8761 8.91943 9.69795 8.95284 9.5532 9.11985C9.40846 9.27573 8.99649 9.6543 8.99649 10.4337C8.99649 10.6118 9.0299 10.8011 9.07444 10.9681C9.23032 11.5249 9.57547 11.9814 9.64228 12.0593C9.72022 12.1595 10.7334 13.8074 12.3479 14.442C13.9624 15.0656 13.9624 14.8651 14.2519 14.8317C14.5414 14.8095 15.1872 14.4532 15.3208 14.0857C15.4544 13.7183 15.4544 13.4065 15.4098 13.3397C15.3653 13.2729 15.2651 13.2395 15.1092 13.1616V13.1505Z" fill="#005A9C"/>
</svg>
